<?xml version="1.0" encoding="UTF-8"?>
<svg xmlns="http://www.w3.org/2000/svg" version="1.1" viewBox="0 0 2400 2400">
  <defs>
    <style>
      .cls-1 {
        fill: none;
      }

      .cls-1, .cls-2, .cls-3 {
        stroke-width: 0px;
      }

      .cls-2 {
        fill: #fff;
      }

      .cls-3 {
        fill: #0070ff;
      }
    </style>
  </defs>
  <g id="base">
    <rect class="cls-3" x="2400" y="0" width="2400" height="2400"/>
  </g>
  <g id="design">
    <g>
      <rect class="cls-1" x="0" y="0" width="2400" height="2400"/>
      <circle class="cls-1" cx="1200" cy="1200" r="480"/>
      <path class="cls-2" d="M1662.63,1173.13l-58,37.5-.59.39c-.78.53-79.1,52.98-148.03,52.98-86.13,0-144.15-32.98-239.28-91.28-49.41-30.28-90.52-54.82-132.19-72.18-46.74-19.47-91.4-28.54-140.53-28.54-87,0-176.4,58.93-183.65,63.81l-57.72,37.32,34.75,53.75,58-37.5.59-.39c.78-.53,79.1-52.98,148.03-52.98,86.13,0,144.15,32.98,239.28,91.28,49.41,30.28,90.52,54.82,132.19,72.18,46.74,19.47,91.4,28.54,140.53,28.54,87,0,176.4-58.93,183.65-63.81l57.72-37.32-34.75-53.75Z"/>
    </g>
  </g>
</svg>