<?xml version="1.0" encoding="UTF-8"?>
<svg id="logo" xmlns="http://www.w3.org/2000/svg" version="1.1" viewBox="0 0 2400 2400">
  <defs>
    <style>
      .cls-1 {
        fill: none;
      }

      .cls-1, .cls-2 {
        stroke-width: 0px;
      }

      .cls-2 {
        fill: #fff;
      }
    </style>
  </defs>
  <rect class="cls-1" x="0" y="0" width="2400" height="2400"/>
  <g>
    <circle class="cls-1" cx="1200" cy="1200" r="400"/>
    <path class="cls-2" d="M1408,1312c-40.13,0-77.04-7.7-116.15-24.22-16.44-6.94-33.93-15.74-53.49-26.89-18.99-10.83-38.72-23.2-55.52-33.88-40.91-26-70.32-43.47-99.59-55.83-15.32-6.47-29.8-11.14-44.24-14.26-15.3-3.31-30.68-4.92-47-4.92-58.08,0-91.3,20.78-120.6,39.12-2,1.25-4.07,2.55-6.09,3.8l-47.55,31.7-35.5-53.25,48.45-32.3.46-.29c2.04-1.26,4.1-2.55,6.29-3.92,15.88-9.93,35.64-22.3,60.58-31.97,29.31-11.37,60.05-16.89,93.97-16.89,40.13,0,77.04,7.7,116.15,24.22,16.44,6.94,33.93,15.74,53.49,26.89,18.99,10.83,38.72,23.2,55.52,33.88,40.91,26,70.33,43.47,99.59,55.83,15.32,6.47,29.8,11.14,44.24,14.26,15.3,3.31,30.68,4.92,47,4.92,58.08,0,91.29-20.78,120.6-39.12,2-1.25,4.07-2.55,6.09-3.8l47.55-31.7,35.5,53.25-48.45,32.3-.46.29c-2.04,1.26-4.1,2.55-6.29,3.92-15.88,9.94-35.64,22.3-60.58,31.97-29.31,11.37-60.05,16.89-93.97,16.89Z"/>
  </g>
</svg>